<mxfile host="Electron" modified="2024-03-29T18:27:44.702Z" agent="Mozilla/5.0 (X11; Linux x86_64) AppleWebKit/537.36 (KHTML, like Gecko) draw.io/24.1.0 Chrome/120.0.6099.109 Electron/28.1.0 Safari/537.36" etag="DoQ6yJK9cKlQ73TrMjeT" version="24.1.0" type="device">
  <diagram name="Phase 0" id="e6x3qJgs_gENNkkKjcja">
    <mxGraphModel dx="607" dy="840" grid="1" gridSize="10" guides="1" tooltips="1" connect="1" arrows="1" fold="1" page="1" pageScale="1" pageWidth="827" pageHeight="1169" math="0" shadow="0">
      <root>
        <mxCell id="0" />
        <mxCell id="1" parent="0" />
        <mxCell id="hSuFprzSbTU-1rp_GTe8-3" value="" style="shape=image;aspect=fixed;image=data:image/jpg,/9j/4AAQSkZJRgABAQEBLAEsAAD/4QC6RXhpZgAASUkqAAgAAAAIABIBAwABAAAAAQAAABoBBQABAAAAbgAAABsBBQABAAAAdgAAACgBAwABAAAAAgAAADEBAgANAAAAfgAAADIBAgAUAAAAjAAAABMCAwABAAAAAQAAAGmHBAABAAAAoAAAAAAAAAAsAQAAAQAAACwBAAABAAAAR0lNUCAyLjEwLjM0AAAyMDI0OjAzOjI2IDIwOjE2OjE3AAEAAaADAAEAAAABAAAAAAAAAP/hDNFodHRwOi8vbnMuYWRvYmUuY29tL3hhcC8xLjAvADw/eHBhY2tldCBiZWdpbj0i77u/IiBpZD0iVzVNME1wQ2VoaUh6cmVTek5UY3prYzlkIj8+IDx4OnhtcG1ldGEgeG1sbnM6eD0iYWRvYmU6bnM6bWV0YS8iIHg6eG1wdGs9IlhNUCBDb3JlIDQuNC4wLUV4aXYyIj4gPHJkZjpSREYgeG1sbnM6cmRmPSJodHRwOi8vd3d3LnczLm9yZy8xOTk5LzAyLzIyLXJkZi1zeW50YXgtbnMjIj4gPHJkZjpEZXNjcmlwdGlvbiByZGY6YWJvdXQ9IiIgeG1sbnM6eG1wTU09Imh0dHA6Ly9ucy5hZG9iZS5jb20veGFwLzEuMC9tbS8iIHhtbG5zOnN0RXZ0PSJodHRwOi8vbnMuYWRvYmUuY29tL3hhcC8xLjAvc1R5cGUvUmVzb3VyY2VFdmVudCMiIHhtbG5zOmRjPSJodHRwOi8vcHVybC5vcmcvZGMvZWxlbWVudHMvMS4xLyIgeG1sbnM6R0lNUD0iaHR0cDovL3d3dy5naW1wLm9yZy94bXAvIiB4bWxuczp4bXA9Imh0dHA6Ly9ucy5hZG9iZS5jb20veGFwLzEuMC8iIHhtcE1NOkRvY3VtZW50SUQ9ImFkb2JlOmRvY2lkOnN0b2NrOmQxMTMzMDNkLWYxMTAtNDIxOS1hZGNlLWVhYmQ0YzcwYzZlYSIgeG1wTU06SW5zdGFuY2VJRD0ieG1wLmlpZDo1YThkZmRkNy05NDhiLTQwM2ItYTAyZS04YmYxNTA0OTY1ODkiIHhtcE1NOk9yaWdpbmFsRG9jdW1lbnRJRD0ieG1wLmRpZDpmOWFiOWZkZS1lOWY1LTRjYzgtYjgyNC0zNTAxMjg2M2M3OTYiIGRjOkZvcm1hdD0iaW1hZ2UvanBlZyIgR0lNUDpBUEk9IjIuMCIgR0lNUDpQbGF0Zm9ybT0iTGludXgiIEdJTVA6VGltZVN0YW1wPSIxNzExNDgwNTc4Nzk5NzI5IiBHSU1QOlZlcnNpb249IjIuMTAuMzQiIHhtcDpDcmVhdG9yVG9vbD0iR0lNUCAyLjEwIiB4bXA6TWV0YWRhdGFEYXRlPSIyMDI0OjAzOjI2VDIwOjE2OjE3KzAxOjAwIiB4bXA6TW9kaWZ5RGF0ZT0iMjAyNDowMzoyNlQyMDoxNjoxNyswMTowMCI+IDx4bXBNTTpIaXN0b3J5PiA8cmRmOlNlcT4gPHJkZjpsaSBzdEV2dDphY3Rpb249InNhdmVkIiBzdEV2dDpjaGFuZ2VkPSIvIiBzdEV2dDppbnN0YW5jZUlEPSJ4bXAuaWlkOmI3YWY4ODRmLWIzOTYtNDhkMy1iMTE0LWViNzk0OTY4NTI1OCIgc3RFdnQ6c29mdHdhcmVBZ2VudD0iR2ltcCAyLjEwIChMaW51eCkiIHN0RXZ0OndoZW49IjIwMjQtMDMtMjZUMjA6MTY6MTgrMDE6MDAiLz4gPC9yZGY6U2VxPiA8L3htcE1NOkhpc3Rvcnk+IDwvcmRmOkRlc2NyaXB0aW9uPiA8L3JkZjpSREY+IDwveDp4bXBtZXRhPiAgICAgICAgICAgICAgICAgICAgICAgICAgICAgICAgICAgICAgICAgICAgICAgICAgICAgICAgICAgICAgICAgICAgICAgICAgICAgICAgICAgICAgICAgICAgICAgICAgICAgICAgICAgICAgICAgICAgICAgICAgICAgICAgICAgICAgICAgICAgICAgICAgICAgICAgICAgICAgICAgICAgICAgICAgICAgICAgICAgICAgICAgICAgICAgICAgICAgICAgICAgICAgICAgICAgICAgICAgICAgICAgICAgICAgICAgICAgICAgICAgICAgICAgICAgICAgICAgICAgICAgICAgICAgICAgICAgICAgICAgICAgICAgICAgICAgICAgICAgICAgICAgICAgICAgICAgICAgICAgICAgICAgICAgICAgICAgICAgICAgICAgICAgICAgICAgICAgICAgICAgICAgICAgICAgICAgICAgICAgICAgICAgICAgICAgICAgICAgICAgICAgICAgICAgICAgICAgICAgICAgICAgICAgICAgICAgICAgICAgICAgICAgICAgICAgICAgICAgICAgICAgICAgICAgICAgICAgICAgICAgICAgICAgICAgICAgICAgICAgICAgICAgICAgICAgICAgICAgICAgICAgICAgICAgICAgICAgICAgICAgICAgICAgICAgICAgICAgICAgICAgICAgICAgICAgICAgICAgICAgICAgICAgICAgICAgICAgICAgICAgICAgICAgICAgICAgICAgICAgICAgICAgICAgICAgICAgICAgICAgICAgICAgICAgICAgICAgICAgICAgICAgICAgICAgICAgICAgICAgICAgICAgICAgICAgICAgICAgICAgICAgICAgICAgICAgICAgICAgICAgICAgICAgICAgICAgICAgICAgICAgICAgICAgICAgICAgICAgICAgICAgICAgICAgICAgICAgICAgICAgICAgICAgICAgICAgICAgICAgICAgICAgICAgICAgICAgICAgICAgICAgICAgICAgICAgICAgICAgICAgICAgICAgICAgICAgICAgICAgICAgICAgICAgICAgICAgICAgICAgICAgICAgICAgICAgICAgICAgICAgICAgICAgICAgICAgICAgICAgICAgICAgICAgICAgICAgICAgICAgICAgICAgICAgICAgICAgICAgICAgICAgICAgICAgICAgICAgICAgICAgICAgICAgICAgICAgICAgICAgICAgICAgICAgICAgICAgICAgICAgICAgICAgICAgICAgICAgICAgICAgICAgICAgICAgICAgICAgICAgICAgICAgICAgICAgICAgICAgICAgICAgICAgICAgICAgICAgICAgICAgICAgICAgICAgICAgICAgICAgICAgICAgICAgICAgICAgICAgICAgICAgICAgICAgICAgICAgICAgICAgICAgICAgICAgICAgICAgICAgICAgICAgICAgICAgICAgICAgICAgICAgICAgICAgICAgICAgICAgICAgICAgICAgICAgICAgICAgICAgICAgICAgICAgICAgICAgICAgICAgICAgICAgICAgICAgICAgICAgICAgICAgICAgICAgICAgICAgICAgICAgICAgICAgICAgICAgICAgICAgICAgICAgICAgICAgICAgICAgICAgICAgICAgICAgICAgICAgICAgICAgICAgICAgICAgICAgICAgICAgICAgICAgICAgICAgICAgICAgICAgICAgICAgICAgICAgICAgICAgICAgICAgICAgICAgICAgICAgICAgICAgICAgICAgICAgICAgICAgICAgICAgICAgICAgICAgICAgICAgICAgICAgICAgICAgICAgICAgICAgICAgICAgICAgICAgICAgICAgICAgICAgICAgICAgICAgICAgICAgICAgICAgICAgICAgICAgICAgICAgICAgICAgICAgICAgICAgICAgICAgICAgICAgICAgICAgICAgICAgICAgICAgICAgICAgICAgICAgICAgICAgICAgICAgICAgICAgICAgICAgICAgICAgICAgICAgICAgICAgICAgICAgICAgICAgICAgICAgICAgICAgICAgICAgICAgICAgICAgICAgICAgICAgICAgICAgICAgICAgICAgICAgICAgICAgICAgICAgICAgICAgICAgICAgICAgICAgICAgICAgICAgICAgICAgICAgICAgICAgICAgICAgICAgICAgICAgICAgICAgICAgICAgICAgICAgICAgICAgICAgICAgICAgICAgICAgICAgICAgICAgICAgICAgICAgICAgICAgICAgICAgICAgICAgICAgICAgICAgICAgICAgICAgICAgICAgICAgICAgICAgICAgICAgICAgICAgICAgICAgICAgICAgICAgICAgICAgICAgICAgICAgICAgICAgICAgICAgICAgICAgICAgICAgICAgICAgICAgICAgICAgICAgICAgICAgICAgICAgICAgICAgICAgICAgICAgICAgICAgICAgICAgICAgICAgICAgICAgICAgICAgICAgIDw/eHBhY2tldCBlbmQ9InciPz7/4gKwSUNDX1BST0ZJTEUAAQEAAAKgbGNtcwRAAABtbnRyUkdCIFhZWiAH6AADABoAEwAPADdhY3NwQVBQTAAAAAAAAAAAAAAAAAAAAAAAAAAAAAAAAAAA9tYAAQAAAADTLWxjbXMAAAAAAAAAAAAAAAAAAAAAAAAAAAAAAAAAAAAAAAAAAAAAAAAAAAAAAAAAAAAAAA1kZXNjAAABIAAAAEBjcHJ0AAABYAAAADZ3dHB0AAABmAAAABRjaGFkAAABrAAAACxyWFlaAAAB2AAAABRiWFlaAAAB7AAAABRnWFlaAAACAAAAABRyVFJDAAACFAAAACBnVFJDAAACFAAAACBiVFJDAAACFAAAACBjaHJtAAACNAAAACRkbW5kAAACWAAAACRkbWRkAAACfAAAACRtbHVjAAAAAAAAAAEAAAAMZW5VUwAAACQAAAAcAEcASQBNAFAAIABiAHUAaQBsAHQALQBpAG4AIABzAFIARwBCbWx1YwAAAAAAAAABAAAADGVuVVMAAAAaAAAAHABQAHUAYgBsAGkAYwAgAEQAbwBtAGEAaQBuAABYWVogAAAAAAAA9tYAAQAAAADTLXNmMzIAAAAAAAEMQgAABd7///MlAAAHkwAA/ZD///uh///9ogAAA9wAAMBuWFlaIAAAAAAAAG+gAAA49QAAA5BYWVogAAAAAAAAJJ8AAA+EAAC2xFhZWiAAAAAAAABilwAAt4cAABjZcGFyYQAAAAAAAwAAAAJmZgAA8qcAAA1ZAAAT0AAACltjaHJtAAAAAAADAAAAAKPXAABUfAAATM0AAJmaAAAmZwAAD1xtbHVjAAAAAAAAAAEAAAAMZW5VUwAAAAgAAAAcAEcASQBNAFBtbHVjAAAAAAAAAAEAAAAMZW5VUwAAAAgAAAAcAHMAUgBHAEL/7QAsUGhvdG9zaG9wIDMuMAA4QklNBAQAAAAAAA8cAVoAAxslRxwBAAACAAQA/9sAQwADAgIDAgIDAwMDBAMDBAUIBQUEBAUKBwcGCAwKDAwLCgsLDQ4SEA0OEQ4LCxAWEBETFBUVFQwPFxgWFBgSFBUU/9sAQwEDBAQFBAUJBQUJFA0LDRQUFBQUFBQUFBQUFBQUFBQUFBQUFBQUFBQUFBQUFBQUFBQUFBQUFBQUFBQUFBQUFBQU/8IAEQgA3ADxAwERAAIRAQMRAf/EAB0AAQEBAQADAQEBAAAAAAAAAAAHCAEDBQYEAgn/xAAWAQEBAQAAAAAAAAAAAAAAAAAAAQL/2gAMAwEAAhADEAAAAdUgAAAAAA4DoAAAAAAAAAAAAOHqojixYFqSxV7U6AAAAAAAAAAeEl8RVZVHgAB56qyWmqgeYAAAAAABBw+MWLRGV9NAAAACvclmLUn2VdAAAABw9REcIqvxAgAAAAAAD7erUljr3AAAOEoiKrK48IAAAAAAAAAPNVTLWVezoBw/zvj8kvQAAAAAAAAAAcP2V/ofZ0A4fIx/MAAAAAAAAAAAD+tPrjoAPzxheX8QAAAAAAAAAAP2punTzgAHCTHooSgLAEoCwBKAsASge+srFdAAAJ5EMlFzKHYqeRDJRcyh2KncQ2UXRKFSp3ENlF0ShUoAAAReMly8Na1Z7OkXjJcvDWtlooRaMmS8NbWWehFoyZLw1tZZ6AAAAi8ZLlGtKs9nSLxkuUa0stFCLxkuUa2ss1CLRkyUa1ss9AAAAReMlyjWlWezpF4yXKNaWWihF4yXKNbWWahFoyZKNa2WegAAAIvGS5RrSrPZ0i8ZLlGtLLRQi8ZLlGtrLNQi0ZMlGtbLPQAAAEXjJco1pVns6ReMlyjWllooReMlyjW1lmoRaMmSjWtlnoAAACLxkuUa0qz2dIvGS5RrSy0UIvGS5RrayzUItGTJRrWyz0AAABF4yXKNaVZ7OkXjJco1pZaKEXjJco1tZZqEWjJko1rZZ6AAAAi8ZLlGtKs9nSLxkuUa0stFCLxkuUa2ss1CLRkyUa1ss9AAAAReMlyjWlWezpF4yXKNaWWihF4yXKNbWWahFoyZKNa2WegAAAIvGS5RrSrPZ0i8ZLlGtLLRQi0ZMlGtrLNQi0ZMlGtbLPQAAAHysTmVZR6+pB8rE5lWUevqQfKxOZVlHr6kHysTmVZRq+qAAB68yjBUAKAQAoBACgEAKA1en76HIiRlGUAAAAAAAAAAAAavstldORiuJwoAAAAAAAAAAAApFm066fOxgeXgAAAAAAAAAAAAO2b4r6I9QfKAAAAAAAAAAAAAA+rPbgAAAAAAAAAAAAAAA//EACcQAAECBgICAgIDAAAAAAAAAAUABwQGEBYXNgIDATAgQBMUFTRQ/9oACAEBAAEFAv8ALIFYQX1FnXhOhFp2LmEInYuHQl14PvUAUhCnV9bs7eHTxLOQIGos5pUgu7v7Irt+HR39kL2iXNKj0JcgQRXX28O7j9EvOAoKizsRHaiRmOMc/UNMxwfmJdjv6kJm8Ua9pAvBiuos7EL0ovOZcz9ETOhcMhLrwvch5eDK9Xy8ow5IoZ5LOWWILu7ucR2/U6e7sh+0S5ZYehDkiifnx8Yv+59iD/ufHlKQbnytAIrPCKzwis8IrPCKzwis8IrPCKzwis8IrPCKzwis8IrPCKzwis8IrPCKzwis8IrPCKzwis8IrPCK0Ai4ykG4cvjEdX5+iNKF4CMuAmrgJq4CauAmrgJq4CauAmrgJq4CauAmrgJq4CauAmrgJq4CauAmrgJq4CauAmrgJq4CauAmoIoXIRnR1fh6fj5Rxu4I6TxHALEcAsRwCxHALEcAsRwCxHALEcAsRwCxHALEcAsRwCxHALEcAsRwCxHALEcAsRwCxHALEcAsRwCxHAIG3cECJ+ieD8RLgnKxhZWMKRz8RMYmk8H4iXBOVjCysYUjn4iYxNJ4mCIlwTlYwsrGFI5+ImMRSeJgiJcE5WMLKxhSQfiJjE+l19co1OuUdjW6NRrlHX1yjU63R19co1Gt+l19co1OuUdjW6NRrlHX1yjU63R19co1Gt+l19co1OuUdjW6NRrlHX1yjU63R19co1Gt+l19co1OuUdjW6NRrlHX1yjU63R19co1Gt+l19co1OuUdjW6NRrlHX1yjU63R19co1Gt+l19co1OuUdjW6NRrlHX1yjU63R19co1Gt+l19co1OuUdjW6NRrlHX1yjU63R19co1Gt+l19co1OuUdjW6NRrlHX1yjU63R19co1Gt+l19co1OuUdjW6NRrlHX1yjU63R19co1Gt+l19co1OuUdfW6NRrlHX1yjU63R2Nco1Gt+mY5f6JkgsTC1iYWpdl/oluCpMUv8ARMkFiYWsTC1Lsv8ARLcFSY5f6JkgsTC1iYWpdl/oluCpMcvdEyQWJhaxMLUuy/0S3BfIhG8B0DlI0somllE0spGllE0somllE0somllE0somllI0somllE0somllE0spGllI0somllE0somllE0spGllI0somllE0spGvCgIzgQgquoW/VDfaawr+0Fp5TgFv5WZftN+W/i5lpMJTwGC+fPnly+1x5eeHKXyfgyGRMXCmIawACsAArAAKwACsAArAAKwACsAArAAKwACsAArAAKwACsAArAAKwACsAArAAKwACsAArAAKwACsAArAAKwACsAArAAKwACGC4UPDf4H//EABQRAQAAAAAAAAAAAAAAAAAAAJD/2gAIAQMBAT8BWT//xAAUEQEAAAAAAAAAAAAAAAAAAACQ/9oACAECAQE/AVk//8QAQxAAAQEDCAYFCAkEAwAAAAAAAgMAAQQQETV0kpOx0SE0RKKy4RITIjAxBSAjM0BDkfBBQlFTYWNygaEUUGJzMlJx/9oACAEBAAY/Av7X1kXEJw4fao+ZiGAhzii+8U7AZsQqxT0kn+6Q7Ds2EUop6qTvdL9t2bCMegcKX/dPthm3WQkQnEB9oFP7O8jJwC7xInzM8UjfHKu+qh4WvBiGH6MCn+XpP4vZ6qqhLKP8TMp3+a5RFQklHfXB8z2cMT0Y5P8AM0H8WcKqj4FV/wBVfwteDOICcYv8CF87vYnuiIsXqO90n2iZ4eToVyLvvV+0XwbpRkUpEfgT+z8O76UHFKQ/4C/s/DwZweUYUVnfeodkvgznQ8WPWP8AdKdku96yLiU4cf8AMmeHk+GKJL7xXsDmzxWiyTSf7pHsDn7C5yMWSiTvdLdsc2EfKEMUMX3iXbHNushIlOIH/AvDuCBIijVnaOij4T/qYgQeMCn+VpK0z1FTJVR/iZvnf7K5RIySUd4GD5ns4V3jHpfm6C+LmFNUiglnvm6KvhP+p3nRH+wsfaYf/YOLvOeT/JkM979L39W1Fw121Fw121Fw121Fw121Fw121Fw121Fw121Fw121Fw121Fw121Fw121Fw121Fw121Fw121Fw121Fw121Fw121Fw121Fw121Fw121Fw121Fw121Fw121Fw12ziHyZDOe7S5/V+con0nh0xePSHQ9zLwyvlGL6xE3g/wBMX0NSMXfE1Ixd8TUjF3xNSMXfE1Ixd8TUjF3xNSMXfE1Ixd8TUjF3xNSMXfE1Ixd8TUjF3xNSMXfE1Ixd8TUjF3xNSMXfE1Ixd8TUjF3xNSMXfE1Ixd8TUjF3xNSMXfEyEMn5Ri+msbgd6YvpYE53l0XOGcvF/nqRprrImpN0hTmm/wDW12J3cm12J3cm12J3cm12J3cm12J3cm12J3cm12J3cm12J3cm12J3cm12J3cm12J3cm12J3cm12J3cm12J3cm12J3cm12J3cm12J3cm12J3cm12J3cm12J3cm12J3cm12J3cmTjQXWWUTc/oipNNP9vcpxMMKZKPWcEyjnvdNM/JvVQlh+beqhLBZspExIpioKrwmTdM6aZ0qcTDCmRvWcEyjp3TTPyb1UJYLNvVQlgs2OJiRTFQVXhMm6Z00zpU4mGFMjJZwTKOndNM/JvVQtgs29VCWCzY4mJFMVHLPCZN0zppnSpxMMKZGSzge5R07ppn5N6qEsFm3qoSwWbHExIpio5V4TJumdNM7ukayOBSrVksBlRrI4FKrWSwGVGsjwlKrWSwGVGsjwlKrWSwHukayPCUq1ZLAZUayOBSq1ksBlRrI8JSq1ksBlRrI8JSq1ksB7pGsjwlKtWSwGVGsjgUqtZLAZUayPCUqtZLAZUayPCUqtZLAe6RrI8JSrVksBlRrI4FKrWSwGVGsjwlKrWSwGVGsjwlKrWSwHukayPCUq1ZLAZUayOBSq1ksBlRrI8JSq1ksBlRrI8JSq1ksB7pGsjwlKtWSwGVGsjgUqtZLAZUayPCUqtZLAZUayPCUqtZLAe6RrI8JSrVksBlRrI4FKrWSwGVGsjwlKrWSwGVGsjwlKrWSwHukayPCUq1ZLAZUayOBSq1ksBlRrI8JSq1ksBlRrI8JSq1ksB7pGsjwlKtWSwGVGsjgUqtZLAZUayPCUqtZLAZUayPCUqtZLAe6RrI4FKtWSwGVKsjgUqtZLAZUKyPCUqtZLAZUayPCUqtZLAe6GFiDUTAT6ydOaf50trUXaHJtai7Q5MULDmooBG9SdSaf50SjCxBqJg4+snT8fnS2tRfxHJtai/iOTFCw5qKARvUnUmn+dEow0QaiYCfWTpzT/Oltai7Q5NrUXaHJihYc1FAeb1J1Jp/nRKMNEGomAn1k6c0/zpbWou0OTa1F/EcmKFhzUUB5vUnUfp+dHnrxSn/BEHm/9m2a7fm2zXXNtmuubbNdc22a65ts11zbZrrm2zXXNtmuubbNdc22a65ts11zbZrrm2zXXNtmuubbNdc22a65ts11zbZrrm2zXXNtmuubbNdc22a65ts11zbZrrm3hDP/AA6t+bIRKelNUHG79/MSghf24o9P6R04ze1qQRP9JCno/S/w/mfzIjovnSh/Qh+3j/M/taDifMlEehL9/D+ZYuM+lMOz+JfR/LPe98736Xv+32txC+YnPnc/7GhIx3ioDnl+BfT/ADJ/TxiXXIz9Love9zUcFss2o0LZZtRoWyzajQtlm1GhbLNqNC2WbUaFss2o0LZZtRoWyzajQtlm1GhbLNqNC2WbUaFss2o0LZZtRoWyzajQtlm1GhbLNqNC2WbUaFss2o0LZZtRoWyzajQtlm1GhbLNqNC2WbUaFss2o0LZZtRoWyzajgtFm39PBpdSjP0ui5736f7D/8QAKRAAAgEBBwQDAQEBAQAAAAAAAAER8CAhMUFhkfEQMIHBQFFxobHhUP/aAAgBAQABPyHvMXy2MSs1L8Wfgi2Ny3CMWyM7HsF+nF7yzw49v0m7nhki7ue8fTZi39GKH6svIvjLL1MAXkwz4gmerf4kmm9cst/LwkY4OCf5dnAiY2vyi4t7nG6/OPlMwfogieif6gWX6ZA/H8FuCjynSw8wZTHW4Jbl5bMcqlXd+Lcu3ipUu/v172xk8N7g3ufhojtq/wCO8fEic9tuBy+34m/xYvwZTEX+Di/h/wASAS695bIjv/Wf0VGIk3PDMlSPcYwf0Qs13M/0sV5JtNCGTvbohUybXbSTY+6EudW9JGJlo3+X8XFS0K/KEq2XQmz7kxVjyJvtkrjeBpsMv0d8ioIqCKgioIqCKgioIqCKgioIqCKgioIqCKgioIqCKgioIqCKgioKwIqC4XKw7xsqmwl7OLHBjgxwY4McGODHBjgxwY4McGODHBjgxwY4McGODHBjgxwY4McWGyCSCXMVlLG9AXhRKeTE9P2PtH358lNeymvZTXspr2U17Ka9lNeymvZTXspr2U17Ka9lNeymvZTXspr2U17Ka9lNeymvZTXspr2ftWx6Pvz4ELr/AJTAsW83bJktATNKMS+kjhy4MuDLhy4cuHLhy4MuDLhy4cuHLhy4MuDLhy4cuHLhy4MuDLhyjkoiJlGBfU7i7DeyuUDHg19D9DPpyqYydqAzNt5vq3s7akMyaYgKsKpvJ2oDM23m+rtxNqQzJp5CAawqicLagMzbeb6u3EykMyaYgCsKqvL2oDM23m+5ieD6flYTO028PC1uoPutsDwfT8rCZ2m1h2t1B91tgeD6flYTO02sO1uoPutsDwfT8rCZ2m1h2t1B91tgeD6flYTO02sO1uoPutsDwfT8rCZ2m1h2t1B91tgeD6flYTO02sO1uoPutsDwfT8rCZ2m1h2t1B91tgeD6flYTO02sO1uoPutsTwfT8rFJ2m0h2txB9tslySSkkms0xIBYBnclFpNJZJfTqtyeSlJJrNMSBWBZzJRaTSWSXUl6VGpJJrNMSAWQZjJxaTSWSXUh6VGpJJrNMSAWBYjJxOTSWSVs6WPy9JgbW3Cr6whp7w094aO8NPeGnvDT3hp7w094ae8NHeGnvDT3hp7w094aO8KbDT3hp7w094ae8NHeGjvDT3hp7wnTcMl8H5yV0SerLgeYs6yn7Jn5V7X/V3sh2F0vEC8Kr1+rBfLuuXpy1/Yt2Lo5ET2rzLl3IfmebObN+SKgioIqCKgioIqCKgioIqCKgioIqCKgioIqCKgioIqCKgioIqCKgioIqCKgioGSFSuZYMjIhhfgux9IwYsINrDBoXy3WrVq1atWrVq1atWrVq1atWrVq1atWrUw9EBNhBNji3/AOD/AP/aAAwDAQACAAMAAAAQkkkkkkkkkkkkkkkkkkkkkjkjkkkkkkkkkkkAcf8A+HAJJJJJJJbY5/8A/wD7kDkkkkkkTgb/AP8A/wD/AO3HBJJAx+//AP8A/wD/AP8A7fkRkk/bbbbbbbbbbb7kkiSSSSSSSSSSSSEkkaSSSSSSSSSSS4kkghSRBSRBSRBSRkkkA6y0eW06T0+TwkkkjfEj/snfsnfskkkkbakffkbbk/fkkkkjbUj78jbcn78kkkkbakffkbbk/fkkkkjbUj78jbcn78kkkkbakffkbbk/fkkkkjbUj78jbcn78kkkkbakffkbbk/fkkkkjbUj78jbcn78kkkkfak/fk/bkffkkkkj1En1EjxEj1gkkg4WQASwAWwAWwAcmP8A/wD/AP8A/wD/AP8A/wD/AP7kX/8A/wD/AP8A/wD/AP8A/wD/APcj7bbbbbbbbbbbbfkgkkkkkkkkkkkkkEkEkkkkkkkkkkkkkk//xAAcEQADAQEBAQEBAAAAAAAAAAABEBEAMEAgYFD/2gAIAQMBAT8Q/mRn0jgfFCx1neaeI8Rp6J9D8seN111xV111xV111xV111x4jTTFjTTFjTTFjTTHkGWGWGWGeQZYZYZYZ5BlhlhlhnkGWGWGWGeQZYZYZYZ5BlhlhlhnkGWGWGWGeQZYZYZYZ5BlhlhlhnkGWGWGWGeQ11+Brr8DXX4GuvEaaOaaaOaaaOaaaOaaY/A9Z+B6yx7D+B//xAAcEQEBAAMBAQEBAAAAAAAAAAABECAwQBFQAGD/2gAIAQIBAT8Q+W4HS6Dldxu9/e8Rpekyekye9+C4+ZeZeYmlwI4EcCOBpaVpWlaamlaVpWmppWlaVpqaVpWlaamlaVpWmppWlaVpqaVpWlaamlaVpWmppWlaVpqaVpWlaamGDDBhgw0vUV7CvYV7D+B//8QAJxABAAIABAUEAwEAAAAAAAAAAQARITFBURAgYcHwMHGBkUChsfH/2gAIAQEAAT8Q9Z1ri7R3rib/AJarWusHmjQVXRsViYBcTCYiyIIOgQnnmPUmOqJincNHoozAVUMBGog9BCFU9WDOqACyyHqxQ6BVF8gMVg4AcHCK9b6/iuBcd94kPdVB8svDxog2UPsWGTMaXwInVnOri/aN6u0k6srM4YZRxzmlaZxTrWzHRxJd6vCj6M91c1nHKiqJdlj7F0IDaxIO4WPwwyzv8D5EADbKb9m/7R1wYoz7VENzPiMQO7UZXaGUZGnSOODS+00rTmylVXSdLx2hltSyqbRDFz1SutUpgbm/Ec6leXM6/Yr+0dcYHu29MM0LNLQVXTPMTALiYSrq2mk6JVPPBL1nFUVTHY3Wp8FwCUKVVyz1ygBpP99K64Ud4gtiw3qx9pZtIZcGgqn2CX7akVnVVCyyPfGi0EK5pnmDgBwcIWXm6R8y/wCzFZTQ3sbxcMpiJ+LxoAqPXO+0e0Noh1uU+X4hhlhNK0/BQdI454+8QeN+xgwh8/cq3isI/KXrd+5Znts4BaXVNXHKVM7N+QYQtgXA3nbZi2zFtmLbMW2YtsxbZi2zFtmLbMW2YtsxbZi2zFtmLbMW2YtsxbZi2zFtmLbMU7MKcxYvRsw9pENOQ0rfSX21p0bVw1VYbz57TwftPB+08H7TwftPB+08H7TwftPB+08H7TwftPB+08H7TwftPB+08H7TwftPB+08H7TwftPB+08H7TwftHafPaHZ+nQbEw0QYKK5SYFg7bRYhdiYiEZAFIWm3SlB1B+Pv379+/fv379+/fv379+/fv3797vzcJSFukFToKElLy1AtYpVq4qvNSgdWq3mGP8A6fwnRbHUXX8cq1alTJkq1alTJkq1alTJkq1alQR4XXeEaogdeiK75qgVlLZwmQZTLvU1gRSwDqax9sWGrKw3OyU8otxSl5etpxv/AFm4NC8sa6wzFmu5WNbIoasrDc7JTqi3FKXl62nGzVxuHQvL+yFwXTPcrGtkUYWabnZKZ2uYpS8vW042auIw6F5Y+5uJoverH2RQ1ZWG52Su9NuKUvL1tOABkV6PbPPGAMLSYaONMUKQ21gKcPK5DWMdItEBohqnDkS4heUBWXqDOm8/W7csoKdfeZPv+PKa6kycxS5k9QZ03n63bllBTr7zJ9/x5TXUmTmKXMnqDOm8/W7csoKdfeZPv+PKa6kycxS5k9QZ03n63bllBTr7zJ9/x5TXUmTmKXMnqDOm8/W7csoKdfeZPv8AjymupMnMUuZPUGdN5+t25ZQU6+8yff8AHlNdSZOYpcyeoM6bz9btyygp195k+/48prqTJzFLmT1BnTefrduWUFOvvMn3/HlNdSZOYpcyeoMzOc/W7csp+c33mT7/AI8xqLk5Shx09pk9MYLKs9nxTVS00heqnSsm5PnTreTKSqB26LNVaF48TfWn80KaqV4XDFlPSc5THpioHbgE1UKw4u8lOz5ZqpaQvVTmHVkpjTGjSwduATVQrC8eLboTs+KaqWmkLSU6GjeEnMY9Glg1cAmqhWGsOYHLgurTR1aoNVIbGmxtTZvOZfHCflaPDj1ilSfO1cePnz8rRnCKB4cfnauLx8+flaPDj+hPztXj58/K0ePHj87V4eeAUStCSZhWdyPeYjM2vAgepdJojx0Y5yhMUWIYtOtXUimIKvH8ka3NbPeOGIBWrekbB0CNXAUozZhQQqxS1W9oXt+XNdEGtACm1EvaSG9HXgsqoS2Ec7+DcJd8lqt29SvzLbMW2YtsxbZi2zFtmLbMW2YtsxbZi2zFtmLbMW2YtsxbZi2zFtmLbMW2YtsxbZi2zFtmLbMW2YBhotKrF3EHDaV4KxsHJmVB+uB5lfjQ03Glusoq7wvyyBAgQIECBAgQIECBAgQIECBAgQIECBAjSpV4WnaDaLhaXWWPEAyw/O//2Q==;" parent="1" vertex="1">
          <mxGeometry x="1400" y="225" width="109.54" height="100" as="geometry" />
        </mxCell>
        <mxCell id="hSuFprzSbTU-1rp_GTe8-4" value="&lt;font style=&quot;font-size: 18px;&quot;&gt;&lt;b&gt;Public Authority / Agora system admin&lt;/b&gt;&lt;/font&gt;" style="text;strokeColor=none;align=center;fillColor=none;html=1;verticalAlign=middle;whiteSpace=wrap;rounded=0;" parent="1" vertex="1">
          <mxGeometry x="1370" y="140" width="160" height="50" as="geometry" />
        </mxCell>
        <mxCell id="hSuFprzSbTU-1rp_GTe8-5" value="&lt;font style=&quot;font-size: 24px;&quot;&gt;EOA&lt;/font&gt;&lt;div&gt;&lt;br&gt;&lt;/div&gt;&lt;div&gt;&lt;br&gt;&lt;/div&gt;&lt;div&gt;&lt;div&gt;&lt;font style=&quot;font-size: 24px;&quot;&gt;DECs Registry&lt;/font&gt;&lt;/div&gt;&lt;/div&gt;" style="text;strokeColor=none;align=left;fillColor=none;html=1;verticalAlign=middle;whiteSpace=wrap;rounded=0;" parent="1" vertex="1">
          <mxGeometry x="1220" y="320" width="170" height="150" as="geometry" />
        </mxCell>
        <mxCell id="hSuFprzSbTU-1rp_GTe8-6" value="" style="shape=flexArrow;endArrow=classic;html=1;rounded=0;fillColor=#990000;" parent="1" edge="1">
          <mxGeometry width="50" height="50" relative="1" as="geometry">
            <mxPoint x="1170" y="362" as="sourcePoint" />
            <mxPoint x="1208.31" y="362.05" as="targetPoint" />
          </mxGeometry>
        </mxCell>
        <mxCell id="hSuFprzSbTU-1rp_GTe8-7" value="" style="shape=flexArrow;endArrow=classic;html=1;rounded=0;fillColor=#990000;" parent="1" edge="1">
          <mxGeometry width="50" height="50" relative="1" as="geometry">
            <mxPoint x="1170" y="422" as="sourcePoint" />
            <mxPoint x="1208.31" y="422.05" as="targetPoint" />
          </mxGeometry>
        </mxCell>
        <mxCell id="hSuFprzSbTU-1rp_GTe8-19" value="" style="shape=actor;whiteSpace=wrap;html=1;" parent="1" vertex="1">
          <mxGeometry x="950" y="940" width="80" height="95" as="geometry" />
        </mxCell>
        <mxCell id="hSuFprzSbTU-1rp_GTe8-20" value="&lt;font style=&quot;font-size: 24px;&quot;&gt;VOTER&lt;/font&gt;" style="text;strokeColor=none;align=center;fillColor=none;html=1;verticalAlign=middle;whiteSpace=wrap;rounded=0;" parent="1" vertex="1">
          <mxGeometry x="920" y="1010" width="140" height="100" as="geometry" />
        </mxCell>
        <mxCell id="hSuFprzSbTU-1rp_GTe8-22" value="" style="html=1;shadow=0;dashed=0;align=center;verticalAlign=middle;shape=mxgraph.arrows2.arrow;dy=0.6;dx=40;direction=south;notch=0;rotation=12;" parent="1" vertex="1">
          <mxGeometry x="1009.42" y="433.49" width="64.66" height="455.06" as="geometry" />
        </mxCell>
        <mxCell id="hSuFprzSbTU-1rp_GTe8-23" value="" style="html=1;shadow=0;dashed=0;align=center;verticalAlign=middle;shape=mxgraph.arrows2.arrow;dy=0.6;dx=40;notch=0;rotation=90;" parent="1" vertex="1">
          <mxGeometry x="1196.25" y="480.62" width="127.5" height="73.75" as="geometry" />
        </mxCell>
        <mxCell id="hSuFprzSbTU-1rp_GTe8-24" value="DECs Registry smart contract" style="swimlane;startSize=23;" parent="1" vertex="1">
          <mxGeometry x="1160" y="610" width="200" height="230" as="geometry" />
        </mxCell>
        <mxCell id="hSuFprzSbTU-1rp_GTe8-27" value="&lt;font style=&quot;font-size: 18px;&quot;&gt;DEC Data (encrypted)&lt;/font&gt;&lt;div&gt;&lt;font style=&quot;font-size: 18px;&quot;&gt;&lt;br&gt;&lt;/font&gt;&lt;/div&gt;&lt;div&gt;&lt;font style=&quot;font-size: 18px;&quot;&gt;&lt;br&gt;&lt;/font&gt;&lt;/div&gt;&lt;div&gt;&lt;font style=&quot;font-size: 18px;&quot;&gt;List of Elections Stamps&lt;/font&gt;&lt;/div&gt;" style="text;strokeColor=none;align=left;fillColor=none;html=1;verticalAlign=middle;whiteSpace=wrap;rounded=0;" parent="hSuFprzSbTU-1rp_GTe8-24" vertex="1">
          <mxGeometry x="2.5" y="30" width="170" height="170" as="geometry" />
        </mxCell>
        <mxCell id="hSuFprzSbTU-1rp_GTe8-31" value="" style="html=1;shadow=0;dashed=0;align=center;verticalAlign=middle;shape=mxgraph.arrows2.arrow;dy=0.6;dx=40;notch=0;rotation=60;" parent="1" vertex="1">
          <mxGeometry x="1489.38" y="406.39" width="202.5" height="65" as="geometry" />
        </mxCell>
        <mxCell id="hSuFprzSbTU-1rp_GTe8-32" value="Election Smart Contract" style="swimlane;startSize=23;" parent="1" vertex="1">
          <mxGeometry x="1654" y="610" width="200" height="230" as="geometry" />
        </mxCell>
        <mxCell id="hSuFprzSbTU-1rp_GTe8-33" value="&lt;font style=&quot;font-size: 18px;&quot;&gt;Elections Data&lt;/font&gt;&lt;div&gt;&lt;span style=&quot;font-size: 18px;&quot;&gt;&lt;br&gt;&lt;/span&gt;&lt;/div&gt;&lt;div&gt;&lt;span style=&quot;font-size: 18px;&quot;&gt;Registered Voters (with hash of election stamps)&lt;br&gt;&lt;/span&gt;&lt;div&gt;&lt;br&gt;&lt;/div&gt;&lt;/div&gt;&lt;div&gt;&lt;font style=&quot;font-size: 18px;&quot;&gt;Votes&lt;/font&gt;&lt;/div&gt;" style="text;strokeColor=none;align=left;fillColor=none;html=1;verticalAlign=middle;whiteSpace=wrap;rounded=0;" parent="hSuFprzSbTU-1rp_GTe8-32" vertex="1">
          <mxGeometry x="2.5" y="30" width="170" height="170" as="geometry" />
        </mxCell>
        <mxCell id="hSuFprzSbTU-1rp_GTe8-63" value="&lt;b&gt;8&lt;/b&gt;" style="ellipse;whiteSpace=wrap;html=1;aspect=fixed;fillColor=#CC0000;" parent="hSuFprzSbTU-1rp_GTe8-32" vertex="1">
          <mxGeometry x="66" y="167.44000000000005" width="25" height="25" as="geometry" />
        </mxCell>
        <mxCell id="hSuFprzSbTU-1rp_GTe8-37" value="" style="html=1;shadow=0;dashed=0;align=center;verticalAlign=middle;shape=mxgraph.arrows2.arrow;dy=0.6;dx=40;notch=0;rotation=-15;" parent="1" vertex="1">
          <mxGeometry x="1057.21" y="909.38" width="557.79" height="26.25" as="geometry" />
        </mxCell>
        <mxCell id="hSuFprzSbTU-1rp_GTe8-38" value="" style="html=1;shadow=0;dashed=0;align=center;verticalAlign=middle;shape=mxgraph.arrows2.arrow;dy=0.6;dx=40;flipH=1;notch=0;" parent="1" vertex="1">
          <mxGeometry x="1390" y="670" width="250" height="30" as="geometry" />
        </mxCell>
        <mxCell id="hSuFprzSbTU-1rp_GTe8-39" value="" style="html=1;shadow=0;dashed=0;align=center;verticalAlign=middle;shape=mxgraph.arrows2.uTurnArrow;dy=11;arrowHead=43;dx2=25;rotation=-210;" parent="1" vertex="1">
          <mxGeometry x="1645" y="207.99" width="220" height="372.44" as="geometry" />
        </mxCell>
        <mxCell id="hSuFprzSbTU-1rp_GTe8-40" value="" style="html=1;shadow=0;dashed=0;align=center;verticalAlign=middle;shape=mxgraph.arrows2.arrow;dy=0.6;dx=40;flipH=1;notch=0;" parent="1" vertex="1">
          <mxGeometry x="1387.5" y="760" width="250" height="30" as="geometry" />
        </mxCell>
        <mxCell id="hSuFprzSbTU-1rp_GTe8-42" value="" style="html=1;shadow=0;dashed=0;align=center;verticalAlign=middle;shape=mxgraph.arrows2.arrow;dy=0.6;dx=40;notch=0;rotation=90;" parent="1" vertex="1">
          <mxGeometry x="1680" y="896.25" width="127.5" height="73.75" as="geometry" />
        </mxCell>
        <mxCell id="hSuFprzSbTU-1rp_GTe8-43" value="" style="shape=tape;whiteSpace=wrap;html=1;rotation=-90;" parent="1" vertex="1">
          <mxGeometry x="1672.1299999999999" y="982.27" width="163.75" height="199.06" as="geometry" />
        </mxCell>
        <mxCell id="hSuFprzSbTU-1rp_GTe8-44" value="&lt;font style=&quot;font-size: 18px;&quot;&gt;RESULTS&lt;/font&gt;" style="text;strokeColor=none;align=center;fillColor=none;html=1;verticalAlign=middle;whiteSpace=wrap;rounded=0;" parent="1" vertex="1">
          <mxGeometry x="1649.46" y="1020" width="200" height="110" as="geometry" />
        </mxCell>
        <mxCell id="hSuFprzSbTU-1rp_GTe8-47" value="" style="html=1;shadow=0;dashed=0;align=center;verticalAlign=middle;shape=mxgraph.arrows2.arrow;dy=0.6;dx=40;notch=0;rotation=-15;" parent="1" vertex="1">
          <mxGeometry x="1060" y="950" width="560.94" height="30" as="geometry" />
        </mxCell>
        <mxCell id="hSuFprzSbTU-1rp_GTe8-48" value="" style="html=1;shadow=0;dashed=0;align=center;verticalAlign=middle;shape=mxgraph.arrows2.arrow;dy=0.6;dx=40;notch=0;rotation=0;" parent="1" vertex="1">
          <mxGeometry x="1115.9" y="1070" width="524.1" height="30" as="geometry" />
        </mxCell>
        <mxCell id="hSuFprzSbTU-1rp_GTe8-50" value="&lt;font style=&quot;font-size: 18px;&quot;&gt;ANONYMOUS&amp;nbsp;&lt;/font&gt;&lt;div&gt;&lt;font size=&quot;3&quot; style=&quot;&quot;&gt;USER&lt;/font&gt;&lt;/div&gt;" style="text;strokeColor=none;align=center;fillColor=none;html=1;verticalAlign=middle;whiteSpace=wrap;rounded=0;" parent="1" vertex="1">
          <mxGeometry x="920" y="1240" width="140" height="100" as="geometry" />
        </mxCell>
        <mxCell id="hSuFprzSbTU-1rp_GTe8-51" value="" style="shape=actor;whiteSpace=wrap;html=1;" parent="1" vertex="1">
          <mxGeometry x="950" y="1160" width="80" height="95" as="geometry" />
        </mxCell>
        <mxCell id="hSuFprzSbTU-1rp_GTe8-52" value="" style="html=1;shadow=0;dashed=0;align=center;verticalAlign=middle;shape=mxgraph.arrows2.arrow;dy=0.6;dx=40;notch=0;rotation=-10;" parent="1" vertex="1">
          <mxGeometry x="1068.41" y="1173.83" width="581.05" height="40" as="geometry" />
        </mxCell>
        <mxCell id="hSuFprzSbTU-1rp_GTe8-53" value="" style="ellipse;whiteSpace=wrap;html=1;aspect=fixed;fillColor=#CC0000;" parent="1" vertex="1">
          <mxGeometry x="1247.5" y="225" width="25" height="25" as="geometry" />
        </mxCell>
        <mxCell id="hSuFprzSbTU-1rp_GTe8-55" value="" style="ellipse;whiteSpace=wrap;html=1;aspect=fixed;fillColor=#CC0000;" parent="1" vertex="1">
          <mxGeometry x="1298.75" y="490.00000000000006" width="25" height="25" as="geometry" />
        </mxCell>
        <mxCell id="hSuFprzSbTU-1rp_GTe8-56" value="&lt;b&gt;3&lt;/b&gt;" style="ellipse;whiteSpace=wrap;html=1;aspect=fixed;fillColor=#CC0000;" parent="1" vertex="1">
          <mxGeometry x="1005" y="579.94" width="25" height="25" as="geometry" />
        </mxCell>
        <mxCell id="hSuFprzSbTU-1rp_GTe8-57" value="&lt;b&gt;4&lt;/b&gt;" style="ellipse;whiteSpace=wrap;html=1;aspect=fixed;fillColor=#CC0000;" parent="1" vertex="1">
          <mxGeometry x="1615" y="382.5" width="25" height="25" as="geometry" />
        </mxCell>
        <mxCell id="hSuFprzSbTU-1rp_GTe8-59" value="&lt;b&gt;7&lt;/b&gt;" style="ellipse;whiteSpace=wrap;html=1;aspect=fixed;fillColor=#CC0000;" parent="1" vertex="1">
          <mxGeometry x="1502.5" y="647.56" width="25" height="25" as="geometry" />
        </mxCell>
        <mxCell id="hSuFprzSbTU-1rp_GTe8-60" value="&lt;b&gt;5&lt;/b&gt;" style="ellipse;whiteSpace=wrap;html=1;aspect=fixed;fillColor=#CC0000;" parent="1" vertex="1">
          <mxGeometry x="1849.46" y="295" width="25" height="25" as="geometry" />
        </mxCell>
        <mxCell id="hSuFprzSbTU-1rp_GTe8-61" value="&lt;b&gt;6&lt;/b&gt;" style="ellipse;whiteSpace=wrap;html=1;aspect=fixed;fillColor=#CC0000;" parent="1" vertex="1">
          <mxGeometry x="1196.25" y="910.63" width="25" height="25" as="geometry" />
        </mxCell>
        <mxCell id="hSuFprzSbTU-1rp_GTe8-62" value="&lt;b&gt;9&lt;/b&gt;" style="ellipse;whiteSpace=wrap;html=1;aspect=fixed;fillColor=#CC0000;" parent="1" vertex="1">
          <mxGeometry x="1500" y="735" width="25" height="25" as="geometry" />
        </mxCell>
        <mxCell id="hSuFprzSbTU-1rp_GTe8-65" value="&lt;b&gt;10&lt;/b&gt;" style="ellipse;whiteSpace=wrap;html=1;aspect=fixed;fillColor=#CC0000;" parent="1" vertex="1">
          <mxGeometry x="1778.75" y="910" width="25" height="25" as="geometry" />
        </mxCell>
        <mxCell id="hSuFprzSbTU-1rp_GTe8-66" value="&lt;b&gt;12&lt;/b&gt;" style="ellipse;whiteSpace=wrap;html=1;aspect=fixed;fillColor=#CC0000;" parent="1" vertex="1">
          <mxGeometry x="1351.25" y="985" width="25" height="25" as="geometry" />
        </mxCell>
        <mxCell id="hSuFprzSbTU-1rp_GTe8-67" value="&lt;b&gt;11&lt;/b&gt;" style="ellipse;whiteSpace=wrap;html=1;aspect=fixed;fillColor=#CC0000;" parent="1" vertex="1">
          <mxGeometry x="1475" y="1047.5" width="25" height="25" as="geometry" />
        </mxCell>
        <mxCell id="hSuFprzSbTU-1rp_GTe8-68" value="&lt;b&gt;11&lt;/b&gt;" style="ellipse;whiteSpace=wrap;html=1;aspect=fixed;fillColor=#CC0000;" parent="1" vertex="1">
          <mxGeometry x="1171.25" y="1181.33" width="25" height="25" as="geometry" />
        </mxCell>
        <mxCell id="hSuFprzSbTU-1rp_GTe8-69" value="&lt;font style=&quot;font-size: 14px;&quot;&gt;&lt;b&gt;1&lt;/b&gt;&lt;/font&gt;" style="text;strokeColor=none;align=center;fillColor=none;html=1;verticalAlign=middle;whiteSpace=wrap;rounded=0;" parent="1" vertex="1">
          <mxGeometry x="1230" y="225" width="60" height="30" as="geometry" />
        </mxCell>
        <mxCell id="hSuFprzSbTU-1rp_GTe8-70" value="&lt;font style=&quot;font-size: 14px;&quot;&gt;&lt;b&gt;2&lt;/b&gt;&lt;/font&gt;" style="text;strokeColor=none;align=center;fillColor=none;html=1;verticalAlign=middle;whiteSpace=wrap;rounded=0;" parent="1" vertex="1">
          <mxGeometry x="1281.25" y="487.50000000000006" width="60" height="30" as="geometry" />
        </mxCell>
        <mxCell id="R2bzAFKinwlztTH-HyFp-1" value="" style="html=1;shadow=0;dashed=0;align=center;verticalAlign=middle;shape=mxgraph.arrows2.jumpInArrow;dy=15;dx=38;arrowHead=55;rotation=-180;direction=north;flipV=0;flipH=1;" vertex="1" parent="1">
          <mxGeometry x="1212.5" y="260" width="163.75" height="80" as="geometry" />
        </mxCell>
      </root>
    </mxGraphModel>
  </diagram>
</mxfile>
